<svg width="126" height="62" viewBox="0 0 126 62" fill="none" xmlns="http://www.w3.org/2000/svg">
<path d="M8 44L2 50.5V62H124.5V1.5L108 16L100 6.5L86.5 12.5L70.5 6.5L67 16L51.5 24.5L38.5 26L32.5 34.5L23 32L18 38L8 44Z" fill="url(#paint0_linear_2983_53)"/>
<path d="M2 50.5L8 44L18 38L23 32L32.5 34.5L38.5 26L51.5 24.5L67 16L70.5 6.5L86.5 12.5L100 6.5L108 16L124.5 1.5" stroke="#724BF2" stroke-width="3"/>
<defs>
<linearGradient id="paint0_linear_2983_53" x1="63.25" y1="1.5" x2="63.25" y2="62" gradientUnits="userSpaceOnUse">
<stop stop-color="#6334FE" stop-opacity="0.24"/>
<stop offset="1" stop-color="#6334FE" stop-opacity="0"/>
</linearGradient>
</defs>
</svg>
